{
    "asset" : {
        "generator" : "Khronos glTF Blender I/O v1.6.16",
        "version" : "2.0"
    },
    "scene" : 0,
    "scenes" : [
        {
            "name" : "Scene",
            "nodes" : [
                1,
                2,
                3
            ]
        }
    ],
    "nodes" : [
        {
            "mesh" : 0,
            "name" : "NormalTangentTest_low"
        },
        {
            "children" : [
                0
            ],
            "name" : "Node_0"
        },
        {
            "name" : "Light",
            "rotation" : [
                0.16907575726509094,
                0.7558803558349609,
                -0.27217137813568115,
                0.570947527885437
            ],
            "translation" : [
                4.076245307922363,
                5.903861999511719,
                -1.0054539442062378
            ]
        },
        {
            "name" : "Camera",
            "rotation" : [
                0.483536034822464,
                0.33687159419059753,
                -0.20870360732078552,
                0.7804827094078064
            ],
            "translation" : [
                7.358891487121582,
                4.958309173583984,
                6.925790786743164
            ]
        }
    ],
    "materials" : [
        {
            "doubleSided" : true,
            "name" : "Material_0",
            "normalTexture" : {
                "index" : 0
            },
            "occlusionTexture" : {
                "index" : 1
            },
            "pbrMetallicRoughness" : {
                "baseColorTexture" : {
                    "index" : 2
                },
                "metallicRoughnessTexture" : {
                    "index" : 1
                }
            }
        }
    ],
    "meshes" : [
        {
            "name" : "NormalTangentTest_low",
            "primitives" : [
                {
                    "attributes" : {
                        "POSITION" : 0,
                        "NORMAL" : 1,
                        "TANGENT" : 2,
                        "TEXCOORD_0" : 3
                    },
                    "indices" : 4,
                    "material" : 0
                }
            ]
        }
    ],
    "textures" : [
        {
            "sampler" : 0,
            "source" : 0
        },
        {
            "sampler" : 0,
            "source" : 1
        },
        {
            "sampler" : 0,
            "source" : 2
        }
    ],
    "images" : [
        {
            "bufferView" : 5,
            "mimeType" : "image/png",
            "name" : "Image_2"
        },
        {
            "bufferView" : 6,
            "mimeType" : "image/png",
            "name" : "Image_1"
        },
        {
            "bufferView" : 7,
            "mimeType" : "image/png",
            "name" : "Image_0"
        }
    ],
    "accessors" : [
        {
            "bufferView" : 0,
            "componentType" : 5126,
            "count" : 3983,
            "max" : [
                1.1100000143051147,
                0.9500001072883606,
                0.08049999922513962
            ],
            "min" : [
                -1.1100000143051147,
                -1.2000000476837158,
                -0.009999989531934261
            ],
            "type" : "VEC3"
        },
        {
            "bufferView" : 1,
            "componentType" : 5126,
            "count" : 3983,
            "type" : "VEC3"
        },
        {
            "bufferView" : 2,
            "componentType" : 5126,
            "count" : 3983,
            "type" : "VEC4"
        },
        {
            "bufferView" : 3,
            "componentType" : 5126,
            "count" : 3983,
            "type" : "VEC2"
        },
        {
            "bufferView" : 4,
            "componentType" : 5123,
            "count" : 23322,
            "type" : "SCALAR"
        }
    ],
    "bufferViews" : [
        {
            "buffer" : 0,
            "byteLength" : 47796,
            "byteOffset" : 0
        },
        {
            "buffer" : 0,
            "byteLength" : 47796,
            "byteOffset" : 47796
        },
        {
            "buffer" : 0,
            "byteLength" : 63728,
            "byteOffset" : 95592
        },
        {
            "buffer" : 0,
            "byteLength" : 31864,
            "byteOffset" : 159320
        },
        {
            "buffer" : 0,
            "byteLength" : 46644,
            "byteOffset" : 191184
        },
        {
            "buffer" : 0,
            "byteLength" : 336676,
            "byteOffset" : 237828
        },
        {
            "buffer" : 0,
            "byteLength" : 1371840,
            "byteOffset" : 574504
        },
        {
            "buffer" : 0,
            "byteLength" : 36384,
            "byteOffset" : 1946344
        }
    ],
    "samplers" : [
        {
            "magFilter" : 9729,
            "minFilter" : 9987
        }
    ],
    "buffers" : [
        {
            "byteLength" : 1982728,
            "uri" : "data:application/octet-stream;base64,"
        }
    ]
}
